<svg preserveAspectRatio="xMidYMid meet" data-bbox="43.2 17.989 113.886 164.211" viewBox="43.2 17.989 113.886 164.211" height="200" width="200" xmlns="http://www.w3.org/2000/svg" data-type="color" role="presentation" aria-hidden="true"><defs><style>#comp-ksi6b7wy svg [data-color="1"] {fill: #5DA699;}</style></defs>
    <g>
        <path d="M136.6 155.2c-22-10.7-24.8-16.4-24.8-16.4-2.3-9.3-6.4-16.2-9.9-20.9l6.7 6.4c.2.5 1.1 2.8 2.4 4.2.5.5.9.5 1.2.5 1.1-.2 2-1.9 2-2.1l-.6-.3c-.2.5-.9 1.6-1.6 1.7-.2.1-.4-.1-.7-.3-1.3-1.3-2.3-4-2.3-4l-11-10.5c-1.5-1.6-2.6-2.4-2.6-2.5l-.4.5 2.6 2.5c3.7 3.8 10.4 12.2 13.6 25.1.1.3 2.8 5.9 25.2 16.8 18.1 8.9 19.9 14.2 20.1 15.8-4.3-3-34.1-24.2-40.4-25.6l-1.7-.4 1.4.9c12.8 8.7 31.2 21.5 36.1 25.8-4.4-2.6-9.8-6-11.9-7.7-1-1.2-1.1-1.1-1.3-1-.1 0-.3.2-.1.5.1.2.5.6 1.1 1.1 2.8 3.2 9.6 12.5 9.4 13.8-1.7-.4-13.2-10.9-21.7-18.7-6.4-5.9-12-10.9-13.5-12.1-.2-.1-.5-.3-.7-.1-.3.4-.4.5 12 12.6 7.7 7.5 18 17.6 19.7 20.1-2.8-1.6-13.8-12.6-21.1-20.2-.3-.3-.5-.6-.8-.8l-.5.5.8.8c7.9 8.2 15.5 17 15.5 18.4-2.4-.1-24.3-26.5-25.5-28.8 0-.2-.3-.5-2.6-1-1.1-.2-6.9-1.2-7.7.9-.7 1.7.7 2.5 1.5 2.9.1.1.3.1.3.2-.1.2-.4.5-.7 1.1-.6 1-1.8 2.9-2.4 3-.9.1-1.5.3-2.1.4l-.6.1c-.9.2-2.7.7-2.8.7 0 0-2.4 1.2-3.2 1.5-.7.3-1.3 1.1-1.8 2.8l.5-2.8c.9-.5 1.8-1 1.9-1.1.3-.2 4.8-1.9 5.6-2.2.7-.3 3.7-2 4-2.2l.4-.3-3.3-2.6-.1.1c-.1 0-4.6 1.3-7.8 1-3.1-.3-5.9.5-7.1 2-.6.7-1.1 1.9-.1 3.4.3.5 1.3 1.7 1.5 2v.3h-.1c-.3-.2-1.7-1.8-2.6-3.2l-.7-.8-.1.9c0 .1-.2 4 .8 6.4 0 .1.1.1.1.1l-.1-.1c-.3-.2-1-2.1-1-2.5 0-.4-.3-3.9-.3-4.3h-.6c.3-.9.7-1.8 1.1-2.3.9-1.3 2.2-2.3 3-2.3.9 0 3.2-.1 4-.3.7-.1 3.6-1.1 3.6-1.1l1.3-.4-1.3-.3c-3.6-.6-9.2-1.7-9.9-2.2-.5-.3-1.3-.7-2.1-1.1-.8-.3-1.7-.7-2-1.1-.3-.2-1.1-.7-2.6-1.5-2.4-1.3-7.6-4-7.9-4.8-.3-.7-1.3-2.3-2.5-4.2-1.4-2.2-3-4.7-3.3-5.6-.1-.5-.4-1.1-.7-1.7-.7-1.7-1.6-3.8-1.3-5.3.3-1.9 1.1-6.6 2.2-8.1.7-.9 1.5-2 2.2-3 .7-.9 1.3-1.7 1.6-2.2.7-1 3.6-4.2 3.7-4.2.1-.1 12.9-16.2-5-33.9.1 0 .1-.1.3-.1.2 0 .5.1 1.1.4 2.8 3.8 6 7.6 7.1 8.8l.5-.4c-3-4.8-5.3-7.7-7.1-8.9-2.4-3.1-4.4-6-5-7.3C64.7 65.5 69 69 73.3 77l.6-.3c-.1 0-6.3-13-8.3-18.5-.4-1.1-.9-2.5-1.5-4-1.8-4.9-5.5-15-4.8-16.2 1.5.9 7.9 15.4 11.5 26.9 1.2 4.5 2.2 7.9 2.2 8l.7-.1c-.4-2.1-1.1-4.6-2-7.6-2-7.7-5.1-18.7-5.6-20.7-.4-1.5-.6-3-.8-4.1-.2-1.4-.3-1.9-.6-2.2-.3-.3-.9-2.6-1.3-3.8-.1-.5-.2-.9-.3-1.1-.1-.6-.5-1.5-.9-2.5-.5-1.4-1.2-3-1.2-3.6 0-.7.2-2.8.3-3.8 1.8 1.2 8.7 6 9.5 13.9 1.7 8.5 3.9 21 5.6 31.9C77.5 80 78.5 91.8 78.5 92l.1 1.3.5-1.1c.9-1.9-.4-11.9-2.1-22.8-.9-8.7-1.7-16.8-1.8-17.9-.2-1-.3-2.1-.5-3.2-.2-1.9-.4-3.8-.9-5.2-.4-1.1-.5-2.5-.6-3.6-.1-1.4-.2-2.6-.7-3.3-.7-.9-.9-3.5-1-4.4l-.4-12.9c.1-.1.4-.3.9-.2 1 .1 3.2 1.4 6.7 8.7 5.2 10.6 4.1 12.1 4.1 12.1l-.2.1v.2c0 .1 1 9.5.5 13.8-.1 1.1-.3 2.6-.5 4.5h-.1l-1.2 14.7.7.1c0-.1.3-4.2.7-8.7 0 1.4.1 2.8 0 4.4-1.4 8.8-2.8 18.2-3 18.9l-.1.9.7-.5c2.4-2.1 3-11.5 3.1-19.2 1.2-7.4 2.3-14.4 2.5-15.5.5-2.5 1.5-8.1 1.5-9.3 0-.6-.2-2.3-.5-4.3-.3-2.1-.5-4.5-.5-5.3 0-1.6-.7-8.3-.9-9.5-.1-.3-.2-.8-.4-1.3-.3-.9-.8-2.3-.5-2.8.1-.1.3-.2.7-.2 2.1.1 5 4.3 5.2 4.9 0 .6.6.9 1 .9.3.4 1.1 1.7 1.7 3.4-.1 1.8-.3 4.1-.5 6.8.1-2.1-.2-4.7-.2-6.4 0-2.5-5.5-7.4-5.5-7.4 6.6 10.3-2 57.1-2 57.1 2.7-3.5 5.7-26.7 5.7-28.9s.8-10.3 1.7-12c.1-.3.3-.7.3-1.3-.4 5.2-.9 11.4-1.4 17-.8 2.3-1 6.6-1 6.8 0 .1-1.4 10.8-2 13-.7 2.2-5.1 11.2-5.2 11.3L80 91.5l.6.3c.4-.7 9.6-16.4 9.8-19.1.1-1.1.7-8.9 1.5-17.9v-.1c.1-.2.1-.4.3-.5.8-1.3.6-2.9.5-4.3-.1-.5-.1-1-.1-1.4 0-1.5 1.2-10.3 2-13.8.4-1.6 0-3.4-.6-5 .1-1.4.2-2.4.2-2.8 1.3.8 6.3 6.4 5.3 14.8-1.2 9.7-2.7 16.9-2.9 17.8-.1.2-.2.7-.4 1.3-.7 2-1.3 3.9-1.3 4.6 0 .9-1.7 5.7-2.4 7.4-.7 1.5.3 2.5.9 2.8l.3.2 4.6-10.3c.1-.3 1.7-6.6 1.7-7.8 0-1.2.1-6.7.3-8 .1-.5.3-1.3.5-2.1.3-1.3.6-2.6.6-3.4v-4.8l.7-2.3c1.7 2.1 4.6 6.5 3.8 8.3-1.2 2.5-1.8 7.1-2.2 9.6l-.1.3c-.3 2.4-1.5 6.3-1.5 6.3v.1c0 .1-.2 5.3-.7 6.8-.1.4-.3.8-.4 1.2-.3 1.1-.7 2.1-1.1 2.6-.7.7-1.9 3.5-2.1 4-.3.3-1.6 2.1-1.7 2.8 0 .1-.1.3-1 1.2-.6.6-1.3 1.2-1.3 1.2L91.4 83l-6.2 8.3-6.7 8.6 4.4-3.7 8.6-10.1c9-9.5 9-9.9 9-10.1.1-.5 3-6.2 4.8-9.7 1.5-4.6 3.5-9.5 4.2-9.7 1.3-.3 3.6.8 4.2 2.4.7 1.7 1.3 5.9 1.3 6.6 0 .6-1.5 4.4-2.4 5-1 .7-4 3.3-4.6 4.2-.4.7-2.7 3.6-3.5 4.6l-.3.3c-1 .3-3.9 1.1-4.4 1.6-.3.3-1.7 1.7-3.1 3.2-1.4 1.5-2.8 2.8-3 3.1l-.3.3c-4.2 3.2-10.6 8.4-12.2 9.8l.4.5 2.8-2.2 2.2-.3h.1c1.1-.5 2.9-1.5 3.1-2.1.1-.4 3-4 4-5.2 1.8-1.4 3.1-2.3 3.5-2.3 1.5 0 4.6-3.2 4.9-3.5.7-.7 1.5-1.5 2.4-2.3h.1l.1-.1s.1-.1.2-.3c1.8-1.7 3.4-3.2 3.8-3.4 2.6-.9 5.7-1.6 6.2-1.3.1.1.3.3.6.5.8.7 1.8 1.6 2 2.6.3 1.4 1.5 5.2 1.5 5.3 0 0 .3 3-1.5 4-1.9.9-5.6 3.1-6.1 3.4l-9.9 1.4c-2 .3-5.2.7-5.6.7-.5 0-3.7.3-3.8.3h-.1l-2.8 1.9-4.4 1.3.1.7c.3 0 23.7-3 28.3-3 2.5 0 4.8-.7 6.4-1.1 1.3-.4 2.4-.7 2.8-.5.9.5 1.2 3.5 1.2 4.5 0 .5-.5 2.6-1.7 2.9-.7.1-1.4.3-2.1.5-.8.2-1.4.3-1.7.4-.5.1-4.8.7-5.3.7-.3 0-1.8-.3-3-.6-1.3-.3-2.5-.5-3-.6-1.3-.2-5.1-.2-7.4-.2h-1.3c-.8 0-1.7.1-2.4 0l-2.8-.5c-.3-.1-.5-.2-.8-.3-2.7-1.2-4-1.5-4-1.6h-.1l-6.8.3 11.4 2.3c1 .3 2 .5 2.9.5l11.5 2.3c5.3 0 13.7.2 14.6.7.7.4 1.3 1.1 1.3 1.7 0 .3-.1.5-.3.7-1.1.7-1.8 1.4-2 1.5-.4.5-1.1 1.1-1.5 1.1-.7 0-4-.3-5.6-.7-1.1-.3-3.4-1.2-5.2-1.9-.7-.3-1.3-.5-1.7-.7-.5-.2-.8-.3-1.1-.5-.7-.3-1.4-.5-3-1.1s-2.2-.9-2.9-1.2c-.3-.1-.7-.3-1.1-.5-.7-.3-3-.5-5.1-.7-1.5-.1-3.2-.3-3.5-.5-.7-.3-5.8-1.3-6.4-1.4l-1.3-.3 1.1.8c.1.1 8.8 6.9 11.7 8.8 1.6 1 2.8 2.3 4 3.4.9.9 1.7 1.8 2.6 2.3 1.7 1 4.4 4.2 4.7 4.7.2.3 1.1 1.1 2.6 2.6 1.1 1 2.4 2.2 2.5 2.5.1.1.1.2.1.3.3.7.7 2.1 3.8 1.7 3.6-.4 5.3-2.3 5.3-3.9 0-2-3.8-3.9-3.8-3.9-.5-.3-5.1-3.4-6.8-4.6l-6.1-4.6c3.2 1.8 6.2 3.3 7.8 3.8 1.7.5 3.4 1.3 4.8 1.9 2.6 1.2 4.6 2.1 5.6 1.3 1.5-1.1 1.5-3 1.3-3.6-.2-.5-1.3-2-1.5-2.2l-2-1.6c.5-.3.9-.7.9-.9l1.8-1.4c.5-.3.7-.7.7-1.3-.1-.9-.7-1.7-1.7-2.2-1.4-.7-13.5-.7-14.8-.7l-8.1-1.6h.3c2.2 0 6.1 0 7.3.2.5.1 1.8.3 3 .6 1.8.4 2.9.6 3.2.6.6 0 5-.5 5.6-.7.3-.1.9-.2 1.7-.4.7-.1 1.5-.3 2.1-.5 1.6-.4 2.1-3 2.1-3.6 0-.1-.1-4.2-1.5-5.1-.7-.4-1.8-.1-3.4.4-1.7.5-3.8 1.1-6.2 1.1-3.4 0-17.1 1.7-24.2 2.5l.5-.1 3-2.1c1-.1 3.2-.3 3.6-.3.5 0 5.2-.6 5.7-.7l10-1.4.1-.1c.1 0 4.1-2.4 6.1-3.4 2.2-1.1 1.9-4.5 1.8-4.7 0-.1-1.2-4-1.5-5.3-.3-1.2-1.5-2.2-2.2-2.9-.2-.2-.4-.3-.5-.5-.8-.8-5.4.7-6.9 1.1-.1.1-.5.3-1.1.9.5-.7.9-1.3 1.1-1.5.5-.8 3.4-3.3 4.4-4 1.1-.7 2.7-4.8 2.7-5.6 0-.7-.7-5-1.4-6.8-.7-1.9-3.5-3.2-5-2.8-1.5.3-4 7.9-4.7 10.1-1.7 3.4-4.6 9-4.8 9.9-.3.6-5.5 6.2-8.8 9.5l-7.3 8.6 1.9-2.5 6.1-8.2 2.4-1.7s.7-.6 1.4-1.3c.9-.9 1.1-1.3 1.1-1.5.1-.5 1.1-1.9 1.7-2.6l.1-.1c.4-.9 1.5-3.3 2-3.8.6-.6.9-1.7 1.3-2.9.1-.4.3-.8.4-1.2.5-1.5.7-6.4.7-7 .1-.5 1.2-4 1.5-6.4l.1-.3c.3-2.5 1-7 2.1-9.4 1.3-2.7-3.7-8.8-4.2-9.5l-.5-.1-1.1 3.6v5c0 .8-.3 2.1-.6 3.2-.2.9-.4 1.6-.5 2.2-.2 1.4-.3 6.9-.3 8.1 0 .9-1.3 5.8-1.7 7.6l-4.3 9.6c-.3-.3-.7-.9-.3-1.8.6-1.3 2.5-6.6 2.5-7.7 0-.7.8-3 1.3-4.4.2-.7.4-1.1.5-1.4.2-.9 1.7-8.1 2.9-17.9.9-7.9-3.4-13.8-5.5-15.3-.4-.3-.7-.3-.9-.3-.1.1-.2.2-.2.4 0 .1-.1.8-.1 1.9-.7-1.3-1.3-2.3-1.3-2.4l-.1-.1h-.1c-.3 0-.6-.1-.6-.3 0-.7-3.2-5.4-5.7-5.6-.6-.1-1 .1-1.3.5-.6.7-.1 2.2.4 3.4.2.5.3.9.4 1.2.2 1.2.9 7.9.9 9.4 0 .9.3 3.1.6 5.4.3 1.9.5 3.7.5 4.2 0 1.1-1.1 6.8-1.5 9.2-.2.9-1 5.7-1.9 11.5-.1-2.8-.1-5-.2-6 .2-2.1.3-3.8.5-4.9.5-4.2-.3-12.6-.5-13.8.5-.7.7-3.1-4-12.8-3-6-5.5-9.1-7.5-9.3-1-.1-1.5.5-1.5.5l-.1.1.5 13c0 .1.2 3.6 1.1 4.8.4.5.5 1.7.5 3 .1 1.3.2 2.7.6 3.8.5 1.3.7 3.2.9 5 .1 1.1.3 2.3.5 3.3.1.7.5 3.6.9 7.7-1.9-11.2-3.8-21.1-4-22-1.1-9.3-10.2-14.6-10.3-14.6l-.4-.2-.1.5c0 .1-.3 3.4-.3 4.4 0 .6.5 1.9 1.2 3.8.3.9.7 1.9.9 2.4.1.3.2.7.3 1.1.7 2.7 1.1 3.9 1.5 4.2.1.1.3 1 .3 1.8.1 1.1.4 2.6.8 4.2.3 1.3 1.7 6.2 3.1 11.5-3.4-9.4-7.5-18.4-8.9-18.9-.2-.1-.4-.1-.5.1-1.1.9.5 6.2 4.5 17 .6 1.5 1.1 2.9 1.5 4 1.1 3.2 3.7 8.9 5.6 13.2-4.2-6-7.7-7.9-7.9-8l-.4-.2v.5c-.1.9 2 4.1 4.5 7.5h-.3c-.5 0-.9.4-1 .6l-.1.2.2.2C75.9 82.6 76 92.1 74.3 98.3c-1.5.2-8.3 1.3-11.4 2.5-3.4 1.4-9.4 6.6-11.2 9.7-.5.9-2 4.1-2.3 4.6l-5.5 4.7-.7.7 1-.1c.2 0 4.1-.3 6-1 1.1.5 8.3 4 10.7 4.4-.1 1.7.7 3.6 1.4 5.3.3.6.5 1.2.6 1.7.3 1 1.8 3.4 3.4 5.8 1.1 1.8 2.2 3.4 2.4 4 .4 1 4 2.9 8.2 5.2 1.3.7 2.4 1.3 2.6 1.4.5.3 1.3.7 2.2 1.1.7.3 1.5.7 2 1 .9.6 6.2 1.6 8.8 2.1-.9.3-1.9.6-2.3.7-.7.1-2.9.3-3.8.3-1.1 0-2.5 1.1-3.6 2.5-1 1.4-2 5.2-2 5.6 0 .1.7 4.8 1 5.2.4.5.9 1.1 1.3 1.2-.3.4-.7.7-.8 1-.2.3-.5.9-.8 1.4-.5.9-1 1.8-1.3 2.4-.1.1-.3.6 0 .9.3.3.7.1 1.1-.1.1-.1.1-.1.2-.1.5-.2.8-1.1 1.1-1.9.2-.3 1.4-2.1 1.8-2.8.3-.4 1.2-.9 2-1.3-.7 2.5-1.5 6.1-1 6.7.2.3.5.2.5.2.1-.1.6-.2.8-2.5.2-.4 1.3-2.9 1.5-4.7.2-1.2 1.7-2.6 2.5-3.4l-.5 2.7v.1c.1.6.2.9.5.9.4.1.5-.4.7-1.2.3-1.3.9-3.1 1.7-3.4.9-.3 3.2-1.5 3.2-1.5s1.9-.5 2.7-.7l.7-.1c.6-.1 1.2-.3 2.1-.4.9-.1 1.8-1.6 2.9-3.3.3-.5.6-.9.7-1.1.1-.1.1-.3.1-.4-.1-.3-.3-.5-.7-.7-.9-.5-1.7-1-1.3-2.1.1-.3.5-.5 1.1-.7 2.5-.7 7.5.4 8 .7 0 0-.1-.1-.1-.2 0 .9 17.1 21.5 23.2 27.3 2 1.9 2.7 2.1 3.1 2.1.3 0 .5-.1.5-.4.3-.8-1.8-3.7-4.8-7.2 4.9 4.8 9.6 9.1 10.7 9.1.2 0 .3-.1.4-.3.3-.8-3.6-5-20.1-21.1-3.5-3.4-7.1-7-9.4-9.3 2.6 2.3 6.7 6 10.8 9.8 17.3 15.8 21.7 19.5 22.6 18.8.3-.3 1.1-.9-4.3-8.1-1.1-1.5-2.4-3.2-3.7-4.8 4 2.8 10.6 6.7 11.6 7.3l.5.3v-.8c0-1.9-25.7-19.6-35.1-26 10.1 4.8 37.8 24.6 38.1 24.8l.3.3.1-.4c.1-.5 2.1-6.4-20.4-17.5zM80.7 86.4c.3-2.3 1.1-7.4 2-12.8-.2 5.3-.7 10.5-2 12.8zm9-13.9c-.1.8-1.2 3.3-2.8 6.2.9-1.9 1.6-3.6 1.8-4.4.4-1.3 1-5 1.4-8.2-.1 3.5-.3 5.9-.4 6.4zm-.3 21c-.1.3-1.5 1.1-2.7 1.7l-1.3.2c2.2-1.8 4.5-3.6 6.5-5.2-1.2 1.3-2.4 2.9-2.5 3.3zm12.4-11.4c-1.2 1.3-3.5 3.3-4.4 3.3-.2 0-.6.2-1.2.5l1.1-1.1c1.5-1.5 2.8-3 3.1-3.2.2-.2 1.5-.7 2.9-1.1-.5.7-1 1.2-1.5 1.6zM86.9 98.7l1.1-.1c.1.1.7.2 1.6.6l-2.7-.5zm4.6 3.2zm18.3 12.7c.3.2 6.2 4.3 6.9 4.6 1.1.5 3.4 2.1 3.4 3.3 0 1.4-1.5 3-4.7 3.3-2.6.3-2.8-.7-3.1-1.3-.1-.1-.1-.3-.2-.5-.2-.3-1.1-1.1-2.6-2.5-1.1-1-2.4-2.2-2.5-2.5-.3-.5-3.1-3.8-4.9-4.9-.7-.5-1.5-1.3-2.4-2.1-1.1-1.1-2.4-2.5-4.1-3.5-2.2-1.5-8.1-6-10.6-7.9 2 .4 4.5.9 4.9 1.1.2.1.8.1 1.7.3l9.6 6.1 8.6 6.5zm11.9-3.5c.5.6 1.2 1.6 1.3 1.9.1.4.1 2-1.1 2.9-.7.5-2.8-.4-5-1.4-1.5-.7-3.2-1.4-4.9-1.9-3.6-1.1-15.3-8.1-19.1-10.5.2 0 .3.1.5.1 1.9.2 4.3.5 4.9.7.4.2.7.3 1 .5.6.3 1.3.7 3 1.3 1.6.6 2.3.9 3 1.1.3.1.7.3 1.1.5.4.1 1 .4 1.7.7 1.7.7 4.1 1.7 5.3 1.9 1.6.3 5 .7 5.7.7.1 0 .3 0 .4-.1l2.2 1.6zM93.8 31.3c.2 1 .3 2.1.1 3-.2.7-.3 1.6-.5 2.6.1-2.1.3-4 .4-5.6zm-28.5 80.8c-.7 1-1.5 2.1-2.2 3-1.2 1.6-2 5.6-2.3 8.1-1.8-.3-8.1-3.2-10.6-4.3l2.1-2.1c.2-.1.9-.7 1.6-1.1.6-.4 1.3-.9 1.7-1.1l-.3.5.5.5c.2.1.4.3.5.3l.5-.7c.2-.3.5-.8.7-1.4h.1c.2.6.5 1.1.7 1.5l.5.7c.2-.1.3-.1.6-.3.2-.2.3-.3.4-.5l-.5-.7c-.2-.3-.5-.5-.8-.9h.1c.4-.1.9-.2 1.3-.3.6-.2 1.1-.4 1.5-.6.7-.3 1.3-.5 2.4-.7 1-.1 1.9-.5 2.6-.8-.6.2-.8.5-1.1.9zm-13.1-1.2c1.7-3.1 7.5-8.1 10.8-9.5 2.9-1.1 9-2.2 11-2.5-1.3 4.1-3.3 6.6-3.3 6.7-.1.1-2.9 3.2-3.7 4.2-.3.2-1.9 1-3.6 1.3-1.3.2-1.8.5-2.6.8-.2.1-.5.2-.7.3 0-.1 0-.1-.1-.2-.1-.3-.2-.5-.3-.6l-.7.3c-.3.1-.8.4-1.4.8.2-.7.3-1.3.3-1.7v-.8c-.1-.1-.3-.1-.6-.1s-.5.1-.6.1v.8c0 .4.1 1 .3 1.7-.6-.4-1.1-.7-1.4-.8l-.7-.3c-.1.1-.2.3-.3.6-.1.3-.1.5-.1.7l.7.3c.3.1.9.2 1.5.3-.5.2-1 .4-1.4.7-.4.3-1.2.8-1.8 1.3-.8.5-1.5 1-1.7 1.1-.3.2-1.2 1.1-1.7 1.7l-.2-1.1-.1-1.3.1-.1c0-.1 1.7-3.7 2.3-4.7zm-5.4 7.3l2.4-2.1.1.8.4 2c-1.3.5-3.4.7-4.7.8l1.8-1.5zM83.9 159c.7 1 1.8 2.4 2.3 2.6.3.2.6.1.7 0 .4-.3.3-.9.3-1v-.1l-.1-.1s-1.1-1.4-1.5-2c-.6-1-.6-1.9.1-2.6.8-1 3-2.1 6.5-1.7 3 .3 7-.7 7.9-1l2.3 1.9c-1.1.7-3 1.7-3.5 1.9-.4.1-5.4 2-5.8 2.3-.2.1-3.2 1.9-5.1 2.9l-2.8 2.6c-.1 0-.1.1-.2.1-.1-.2-.2-.5-.3-.7-.6-1.6-.8-3.9-.8-5.1zm-1.7 6.2c-.2-.4-.9-4.5-.9-4.8 0-.2.3-1.4.8-2.6-.1 1-.5 5.6.4 7.8 0 .1.1.1.1.2-.2-.2-.4-.4-.4-.6zm.4-2.3c.3.8.7 1.8 1.1 2.1.1.1.3.3.5.4l.1.1c-.3.3-.5.5-.9.8-.1-.3-.1-.5-.3-.9-.3-.8-.4-1.6-.5-2.5zm8.3-1.7c-.1.1-3.1 2.5-3.4 4.5-.3 1.8-1.5 4.6-1.5 4.6v.1c-.1.5-.1 1.1-.2 1.5.1-1.2.7-3.8 1.3-6.2l.2-.7-.7.3c-.3.1-2.4 1.1-2.9 1.9-.5.7-1.8 2.8-1.8 2.8l-.1.1c-.2.7-.5 1.5-.7 1.6-.1 0-.2.1-.3.1-.1 0-.1.1-.2.1.3-.5.7-1.5 1.2-2.3.3-.5.6-1.1.8-1.5.3-.5 1.4-1.6 2.2-2.4.1 0 .1 0 .1-.1.1-.1.1-.1.1-.2.2-.1.3-.3.5-.4l2.8-2.5c.3-.2 1.6-.9 2.8-1.6l-.2.3z" fill="#5bc2b1" data-color="1"/>
        <path d="M104.9 43.1c-3.4 4.8-2.6 10.8-2.6 10.8s3.6-12 2.6-10.8z" fill="#5bc2b1" data-color="1"/>
        <path d="M75.3 106.4c.1-.3 3.4-7.9 2.6-11.4l-.7.1c.7 3.2-2.6 10.9-2.6 10.9l.7.4z" fill="#5bc2b1" data-color="1"/>
        <path d="M79 101.9l-.7-.2c-.3 1-2.5 5.6-2.5 5.6l.6.3c.1-.2 2.3-4.7 2.6-5.7z" fill="#5bc2b1" data-color="1"/>
        <path d="M100.2 120.9c-2.4-7-16.8-8.3-16.8-8.3s18.9 14.4 16.8 8.3z" fill="#5bc2b1" data-color="1"/>
        <path d="M106.7 66.5c2.7-1.6 4.1-8.6 4.1-8.6-2.6.2-4.1 8.6-4.1 8.6z" fill="#5bc2b1" data-color="1"/>
        <path d="M80.2 72.3c-.5 5.6-.9 9.5-.9 9.5.3-3.3.7-6.5.9-9.5z" fill="#5bc2b1" data-color="1"/>
        <path d="M81.6 37.9C80.2 31.1 76.3 24 74 20.5c0 0 8.4 18.9 6.2 51.7 1-11.4 2.4-29.7 1.4-34.3z" fill="#5bc2b1" data-color="1"/>
        <path d="M96.7 56.3c.8-1.5.8-14 2-17 1.3-2.9-2.7-9.7-2.7-9.7 2.1 3.5-.7 25.8-1.6 32 .6-1.8 1.6-4.2 2.3-5.3z" fill="#5bc2b1" data-color="1"/>
        <path d="M94.4 61.6c-.2.6-.3 1.1-.3 1.5.1.3.2-.3.3-1.5z" fill="#5bc2b1" data-color="1"/>
    </g>
</svg>