<svg preserveAspectRatio="xMidYMid meet" data-bbox="22.5 45 155.1 109.8" viewBox="22.5 45 155.1 109.8" height="200" width="200" xmlns="http://www.w3.org/2000/svg" data-type="color" role="presentation" aria-hidden="true"><defs><style>#comp-ksdhc5wf svg [data-color="1"] {fill: #FFFFFF;}</style></defs>
    <g>
        <path d="M177.1 120.9L101 45h-2l-76.1 75.9-.4 1.4 3.2 10 1 .9 9.4 2.5 1.4-.4L100 73.1l62.6 62.4 1.4.4 9.4-2.5 1-.9 3.2-10-.5-1.6zm-148.9 9.9L26 124l6.8 2.1 1.6 6.3-6.2-1.6zm135.8 2L101 70h-2l-61.8 61.6-1.6-6.2L100 61.2l70.2 70-6.2 1.6zm8.3-3.5L101 58.2h-2l-65.3 65.1-7.1-2.1L100 48l74.5 74.3-2.2 7z" fill="#ffffff" data-color="1"/>
        <path d="M101 82.9h-2L41.7 140l-.4 1.4 3.2 10 1 .9 9.4 2.5 1.4-.4L100 111l43.4 43.3 1.4.4 9.4-2.5 1-.9 3.2-10-.4-1.4-57-57zm-56.7 58.6L100 86l54.3 54.1-7.1 2.1-46.2-46h-2l-52.5 52.3-2.2-7zM99 108l-44.2 44-6.2-1.6L100 99.2l45.2 45-1.6 6.2L101 108h-2zm53.7 41.6l-6.3 1.7 1.6-6.3 6.9-2.1-2.2 6.7z" fill="#ffffff" data-color="1"/>
    </g>
</svg>