<svg preserveAspectRatio="xMidYMid meet" data-bbox="32.114 30.225 136.086 139.975" viewBox="32.114 30.225 136.086 139.975" xmlns="http://www.w3.org/2000/svg" data-type="color" role="presentation" aria-hidden="true"><defs><style>#comp-ksf7b5ti svg [data-color="1"] {fill: #242323;}</style></defs>
    <g>
        <path d="M164.4 100l3.5-14.9c0-.1 0-.4-.1-.6l-9.7-12.1-3.6-15.9c0-.1-.1-.4-.4-.4l-14.4-6.9-9.1-11.4c-.1-.1-.3-.3-.6-.3h-14.7l-15-7.2c-.1-.1-.4-.1-.6 0l-14.9 7.2H70.1c-.3 0-.4.1-.6.3l-9.2 11.6-13.4 6.4-1.4.7c-.3.1-.6.4-.6.7l-.3 2-3 13.4-7.9 10.1-1.4 1.7c-.1.3-.3.6-.1.9l.7 2.3 2.9 12.3-3.5 15.3c0 .1 0 .4.1.6l9.5 12 3.6 15.8c0 .1.1.4.4.4l14.7 7.1 9.2 11.6c.1.1.3.3.6.3H85l14.9 7.2h.6l15-7.2h14.7c.3 0 .4-.1.6-.3l9.1-11.4 12.4-5.9 2.2-1c.1-.1.3-.3.3-.4l.7-3.2 2.9-12.9 9.7-12.1c.1-.1.1-.4.1-.6l-3.8-15.2zM99.1 31.8v5.3H88l11.1-5.3zm-14 6.8h14.2v14.2L78.2 41.9l6.9-3.3zm-3.3 0l-5.3 2.6-5.1-2.6h10.4zm-11 1.3l4 2-4.9 2.5.9-4.5zm5.6 2.8l22.8 11.6.1 43.8-35-27.8L69.4 46l7-3.3zM51 139.3l1.9 2.3H48l3-2.3zm-2.7.3l.7-2.9 1.2 1.4-1.9 1.5zm1.3-4.7l5.9-23.7c0-.3 0-.4-.1-.6L39 90.9l2-8.8 22.7-10.4 35 27.7-47.4 37.9-1.7-2.4zm19.6-94.8l-1 5.1-4.8 2.3 5.8-7.4zM61.3 50l6.5-3.2-4.6 22.5L52.6 61l8.7-11zm-9.8 10.1l-4-3.3 11-5.3-7 8.6zm-5-2l4 3.3-6.8 8.5 2.8-11.8zm-3.4 14.7L51.7 62l10.7 8.7-20.9 9.5 1.6-7.4zm-2 2.7L39.8 81l-4.9 2.3 6.2-7.8zm-1.6 7.3l-1.6 6.6-3.5-4.3 5.1-2.3zM34.1 87l3.5 4.2-1.3 5.5-2.2-9.7zm-.6 28l2.6-11.9 4.8 21.1-7.4-9.2zm3.5-15l1.7-7.4L54 111.2l-5.6 22.4-5.3-6.6-6.1-27zm9.4 41.3l-2.5-11 4 5.1-1.5 5.9zm1.3 1.9l6.5-.1 4.2 5.2-10.7-5.1zm22.8 18.2l-7.1-9 18.3 9H70.5zm-9.2-11.6L56 143l23.4-.3 14 18.6H85l-23.7-11.5zm26.7 13h6.5l3.8 4.9-10.3-4.9zm11.6 4.5l-3.3-4.5h3.3v4.5zm-4.2-5.9l-15-19.8c-.1-.1-.3-.3-.6-.3l-24.8.3-2.6-3.2 47.2-37.6.3 60.6h-4.5zm68.3-64.8l-1.3-5.6 3.6-4.5-2.3 10.1zm2.2-12.1l-3.9 4.8-3.2-13.6 7.1 8.8zm-15.4 50.2l-1.9 2.6-47.5-37.7 32.6-26 26.9 16.6.1.6-16 19.5c-.1.1-.1.4-.1.6l5.9 23.8zm.6 1.8l.9 3.2-2.2-1.6 1.3-1.6zm9.1-48.4l-25.4-15.6L148.1 62l8.7 11 3.4 15.1zM156 69.8l-6.8-8.7 4-3.3 2.8 12zm-3.6-13l-4 3.3-6.6-8.4 10.6 5.1zm-5.3 4.2L134 71.4l-2.2-24.6 6.8 3.3 8.5 10.9zm-10.6-13.6l-4.9-2.3-.4-4.3 5.3 6.6zm-6.3-3.1l-4.9-2.3 4.5-2.3.4 4.6zm-1.5-5.6l-5.2 2.6-5.3-2.6h10.5zm-6.6 3.5l-21.4 10.7V38.7H115l7.1 3.5zm-21.5-10.4l11.3 5.5-11.3-.1v-5.4zM123.7 43l6.6 3 2.3 26.4-31.8 25.4-.1-43.4 23-11.4zm24.1 95.4l-2.7 3.5-24-.7c-.3 0-.4.1-.6.3l-15.3 19.8h-4l-.3-60.1 46.9 37.2zM101 162.8h3l-3 3.8v-3.8zm1.3 4.5l3.6-4.6h5.9l-9.5 4.6zm27.3-6.1h-11.4l18.3-8.8-6.9 8.8zm9.1-11.2l-23.8 11.4H107l14.4-18.6 22.5.6-5.2 6.6zm2.9-1.6l4-5.1 6.2.1-10.2 5zm5.2-6.5l2-2.6 3.5 2.7-5.5-.1zm6.8-1l-1.4-5.8 3.9-4.9-2.5 10.7zm3.2-13.9l-5.1 6.4-5.6-22.4 15.2-18.5 1.7 7.5-6.2 27zm2.1-2.6l4.9-21.1 2.6 11.7-7.5 9.4z" fill="#363333" data-color="1"/>
    </g>
</svg>