<svg preserveAspectRatio="xMidYMid meet" data-bbox="15.46 71.707 168.959 56.3" viewBox="15.46 71.707 168.959 56.3" height="200" width="200" xmlns="http://www.w3.org/2000/svg" data-type="color" role="presentation" aria-hidden="true"><defs><style>#comp-ksxxvuln svg [data-color="1"] {fill: #242323;}</style></defs>
    <g>
        <path d="M163.8 97.5c-6.6-4-6.7-12.4-1.3-17.3 8.4-7.4 21.4-.5 21.9 10.6.7 15.6-18.3 36.8-61.2 19.3C90.3 96.6 52.6 60.5 25.9 84c-20 17.6 1.4 48.9 19.5 39.7 16.3-8.2 1.4-26.8-9.1-18.9-5.5 4.2-4.4 7.4-3.9 10.5-2-1.2-3.1-8 2.8-12.1 2.2-1.6 5.1-3.2 9.2-2.6 17.5 2.8 15.8 27.9-7 27.4-19.2-.5-32.1-31.3-11.3-47.7 39.1-31.1 80.3 32.1 124.7 33.7 33.2 1.2 37.2-33.7 19.8-34.1-2.8-.1-5.1.9-6.7 2.4-7.7 7.6-1.4 13.3-.1 15.2z" fill="#363333b2" data-color="1"/>
        <path d="M15.6 102.9c-.5-10.1 11.9-24 39.8-12.6 21.4 8.8 46 32.3 63.4 17 13-11.5-.9-31.8-12.7-25.9-10.6 5.4-.9 17.5 5.9 12.3 3.6-2.7 2.9-4.8 2.5-6.8 1.3.7 2 5.2-1.8 7.8-1.5 1-3.3 2.1-6 1.7-11.4-1.8-10.3-18.2 4.6-17.8 12.5.3 20.9 20.4 7.4 31.1-25.7 20.2-52.4-21-81.3-22-21.6-.8-21.6 22.4-21.8 15.2z" fill="#363333b2" data-color="1"/>
    </g>
</svg>