<svg preserveAspectRatio="xMidYMid meet" data-bbox="48 85 104 30.1" viewBox="48 85 104 30.1" height="200" width="200" xmlns="http://www.w3.org/2000/svg" data-type="color" role="presentation" aria-hidden="true"><defs><style>#comp-ksdfh2nw svg [data-color="1"] {fill: #000000;}</style></defs>
    <g>
        <path d="M137.2 85c-1.8 0-3.5.3-5.2 1-.1 0-1.5.6-2.1 1l-1.3.7c-2.4-1.7-5.3-2.7-8.4-2.7-1.8 0-3.5.3-5.2 1-.1 0-1.5.6-2.1 1l-13 7.3L87 87c-.6-.3-2-1-2.1-1-1.7-.6-3.4-1-5.2-1-3.1 0-6 1-8.4 2.7L70 87c-.6-.3-2-1-2.1-1-1.7-.6-3.4-1-5.2-1-8.1 0-14.7 6.7-14.7 15s6.6 15 14.8 15c1.8 0 3.7-.3 5.3-1 .1 0 1.7-.8 2.4-1.2l.8-.5c2.4 1.7 5.3 2.7 8.5 2.7 1.8 0 3.7-.3 5.3-1 .1 0 1.7-.8 2.4-1.2l12.5-7.5 12.5 7.4c.7.5 2.3 1.2 2.4 1.3 1.7.6 3.5 1 5.3 1 3.1 0 6.1-1 8.5-2.7l.8.5c.7.5 2.3 1.2 2.4 1.3 1.7.6 3.5 1 5.3 1 8.1 0 14.8-6.7 14.8-15S145.4 85 137.2 85zm-23.7 2.8c.5-.3 2-.9 2-.9 1.6-.6 3.2-.9 4.8-.9 2.7 0 5.3.8 7.4 2.2L108.5 99l-7.5-4.2 12.5-7zm-4 11.8l19.1-10.7c3.3 2.6 5.4 6.6 5.4 11.1s-2.1 8.5-5.4 11.1l-19.1-11.5zm-2 0l-7.5 4.5-7.5-4.5.1-.1h-.1l7.5-4.2 7.5 4.3zM79.8 86c1.6 0 3.3.3 4.8.9 0 0 1.4.6 2 .9l12.4 7-7.5 4.2-19.2-10.8c2.2-1.4 4.7-2.2 7.5-2.2zm10.7 13.6L71.3 111c-3.3-2.6-5.4-6.6-5.4-11.1s2.1-8.6 5.4-11.1l19.2 10.8zM70 111.9c-.6.4-2.1 1.1-2.3 1.2-1.5.6-3.3.9-5 .9-7.6 0-13.8-6.3-13.8-14s6.2-14 13.8-14c1.6 0 3.3.3 4.8.9 0 0 1.4.6 2 .9l.9.5c-3.3 2.8-5.4 7-5.4 11.7s2.1 8.9 5.4 11.6l-.4.3zm17 0c-.6.4-2.1 1.1-2.3 1.2-1.5.6-3.3.9-5 .9-2.8 0-5.3-.8-7.5-2.3l19.3-11.5 7.5 4.5-12 7.2zm33.2 2.1c-1.7 0-3.4-.3-5-.9-.2-.1-1.6-.8-2.3-1.2l-12-7.2 7.5-4.5 19.3 11.5c-2.1 1.4-4.7 2.3-7.5 2.3zm17 0c-1.7 0-3.4-.3-5-.9-.2-.1-1.6-.8-2.3-1.2l-.4-.3c3.3-2.8 5.4-6.9 5.4-11.6s-2.1-8.9-5.5-11.6l.9-.5c.5-.3 2-.9 2-.9 1.6-.6 3.2-.9 4.8-.9 7.6 0 13.8 6.3 13.8 14s-6.1 13.9-13.7 13.9z" fill="#363535" data-color="1"/>
    </g>
</svg>