<svg preserveAspectRatio="xMidYMid meet" data-bbox="50.836 31.854 98.328 126.783" viewBox="50.836 31.854 98.328 126.783" height="200" width="200" xmlns="http://www.w3.org/2000/svg" data-type="color" role="presentation" aria-hidden="true" aria-labelledby="svgcid--l0s4h6-b7tdkq"><title id="svgcid--l0s4h6-b7tdkq"/>
    <g>
        <path d="M100 31.854c-27.109 0-49.164 22.055-49.164 49.164 0 26.254 44.393 72.663 46.282 74.626l2.882 2.993 2.882-2.993c1.89-1.963 46.282-48.372 46.282-74.626 0-27.109-22.055-49.164-49.164-49.164zm0 115.181c-13.717-14.854-41.164-48.246-41.164-66.017 0-22.698 18.466-41.164 41.164-41.164s41.164 18.466 41.164 41.164c0 17.771-27.447 51.164-41.164 66.017z" fill="#363333" data-color="1"/>
        <path d="M100 62.648c-10.129 0-18.37 8.241-18.37 18.37s8.241 18.37 18.37 18.37 18.37-8.241 18.37-18.37-8.241-18.37-18.37-18.37zm0 28.741c-5.718 0-10.37-4.652-10.37-10.37s4.652-10.37 10.37-10.37 10.37 4.652 10.37 10.37-4.652 10.37-10.37 10.37z" fill="#363333" data-color="1"/>
    </g>
</svg>