<svg preserveAspectRatio="none" data-bbox="28.018 20 143.982 160.082" xmlns="http://www.w3.org/2000/svg" width="200" height="200" viewBox="28.018 20 143.982 160.082" data-type="shape" role="presentation" aria-hidden="true">
    <g>
        <path fill="#ffffff" d="M106.7 140.4c30.5 0 55.2-24.7 55.2-55.2S137.2 30 106.7 30 51.5 54.8 51.5 85.2s24.7 55.2 55.2 55.2zM70 139.2l-33.1 39.1c-1.8 2.1-5 2.4-7.1.6-2.1-1.8-2.4-5-.6-7.1l32.9-38.9C49.4 121 41.5 104 41.5 85.2c0-36 29.2-65.2 65.2-65.2S172 49.2 172 85.2s-29.2 65.2-65.2 65.2c-13.7.1-26.3-4.1-36.8-11.2z"/>
    </g>
</svg>